<?xml version="1.0" encoding="utf-8"?>
<!-- Generator: Adobe Illustrator 21.0.0, SVG Export Plug-In . SVG Version: 6.00 Build 0)  -->
<svg version="1.1" id="icons" xmlns="http://www.w3.org/2000/svg" xmlns:xlink="http://www.w3.org/1999/xlink" x="0px" y="0px"
	 viewBox="0 0 64 64" enable-background="new 0 0 64 64" xml:space="preserve">
<symbol  id="gauge-blank" viewBox="-28 -28 56 56">
	<g>
		<circle fill="#CCCCCC" cx="0" cy="0" r="28"/>
	</g>
	<g>
		<circle fill="#FFFFFF" cx="0" cy="0" r="24"/>
	</g>
	<g>
		
			<ellipse transform="matrix(0.5878 -0.809 0.809 0.5878 1.406295e-05 -5.360487e-06)" fill="#FFFFFF" cx="0" cy="0" rx="24" ry="24"/>
	</g>
	<g>
		<path fill="#F3F3F3" d="M0,22c12.919,0,23.45-10.209,23.975-23C23.988-0.668,24-0.335,24,0c0,13.255-10.745,24-24,24
			S-24,13.255-24,0c0-0.335,0.012-0.668,0.025-1C-23.45,11.791-12.919,22,0,22z"/>
	</g>
	<g>
		<g>
			<path fill="#FAAB67" d="M-13.326,8.849C-10.634,12.896-6.146,15.631-1,15.95v4c-6.625-0.328-12.396-3.863-15.788-9.102
				L-13.326,8.849z"/>
		</g>
	</g>
	<g>
		<g>
			<path fill="#24CB7F" d="M-16,0c0,1.376,0.192,2.704,0.519,3.979l-3.808,1.237C-19.738,3.55-20,1.808-20,0
				c0-6.293,2.912-11.899,7.455-15.565l2.35,3.235C-13.74-9.396-16-4.962-16,0z"/>
		</g>
		<g opacity="0.05">
			<g>
				<path d="M-19.289,4.216l3.597-1.169c0.062,0.313,0.132,0.624,0.211,0.931l-3.808,1.237C-19.738,3.55-20,1.808-20,0
					c0-0.186,0.011-0.368,0.016-0.553C-19.945,1.094-19.701,2.689-19.289,4.216z"/>
			</g>
			<g>
				<path d="M-16-1c0-4.749,2.084-8.999,5.37-11.929l0.435,0.599c-3.454,2.859-5.671,7.146-5.784,11.953
					C-15.987-0.584-16-0.791-16-1z"/>
			</g>
		</g>
		<g>
			<path fill="#FFBE2A" d="M-14.869,5.883C-12.641,11.509-7.321,15.558-1,15.95v4c-8.097-0.401-14.914-5.603-17.672-12.831
				L-14.869,5.883z"/>
		</g>
		<g opacity="0.05">
			<path d="M-18.672,7.118l0.372-0.121C-15.339,13.762-8.763,18.565-1,18.95v1C-9.097,19.548-15.914,14.347-18.672,7.118z"/>
		</g>
	</g>
	<g>
		<g>
			<path fill="#ED1E24" d="M16,0c0,1.376-0.192,2.704-0.519,3.979l3.808,1.237C19.738,3.55,20,1.808,20,0
				c0-6.293-2.912-11.899-7.455-15.565l-2.35,3.235C13.74-9.396,16-4.962,16,0z"/>
		</g>
		<g opacity="0.05">
			<g>
				<path d="M19.289,4.216c0.412-1.527,0.656-3.121,0.695-4.769C19.989-0.368,20-0.186,20,0c0,1.808-0.262,3.55-0.711,5.216
					l-3.808-1.237c0.079-0.307,0.149-0.618,0.211-0.931L19.289,4.216z"/>
			</g>
			<g>
				<path d="M16-1c0,0.209-0.013,0.416-0.021,0.623c-0.113-4.807-2.329-9.094-5.784-11.953l0.435-0.599C13.916-9.999,16-5.749,16-1z
					"/>
			</g>
		</g>
		<g>
			<path fill="#F47721" d="M14.869,5.883C12.641,11.509,7.321,15.558,1,15.95v4c8.097-0.401,14.914-5.603,17.672-12.831
				L14.869,5.883z"/>
		</g>
		<g opacity="0.05">
			<path d="M18.3,6.997l0.372,0.121C15.914,14.347,9.097,19.548,1,19.95v-1C8.763,18.565,15.339,13.762,18.3,6.997z"/>
		</g>
	</g>
	<path fill="#807F7F" d="M0,13.254"/>
	<path fill="#D9D9D8" d="M5-18c0-1.1-0.9-2-2-2h-6c-1.1,0-2,0.9-2,2v1c0,1.1,0.9,2,2,2h6c1.1,0,2-0.9,2-2V-18z"/>
	<path opacity="0.05" d="M3-15h-6c-1.1,0-2-0.9-2-2v-1c0,1.1,0.9,2,2,2h6c1.1,0,2-0.9,2-2v1C5-15.9,4.1-15,3-15z"/>
</symbol>
<symbol  id="gauge-blank_2" viewBox="-28 -28 56 56">
	<g>
		<circle fill="#CCCCCC" cx="0" cy="0" r="28"/>
	</g>
	<g>
		<circle fill="#FFFFFF" cx="0" cy="0" r="24"/>
	</g>
	<g>
		
			<ellipse transform="matrix(0.5878 -0.809 0.809 0.5878 1.406295e-05 -5.360487e-06)" fill="#FFFFFF" cx="0" cy="0" rx="24" ry="24"/>
	</g>
	<g>
		<path fill="#F3F3F3" d="M0,22c12.919,0,23.45-10.209,23.975-23C23.988-0.668,24-0.335,24,0c0,13.255-10.745,24-24,24
			S-24,13.255-24,0c0-0.335,0.012-0.668,0.025-1C-23.45,11.791-12.919,22,0,22z"/>
	</g>
	<g>
		<g>
			<path fill="#FAAB67" d="M-13.326,8.849C-10.634,12.896-6.146,15.631-1,15.95v4c-6.625-0.328-12.396-3.863-15.788-9.102
				L-13.326,8.849z"/>
		</g>
	</g>
	<g>
		<g>
			<path fill="#24CB7F" d="M-16,0c0,1.376,0.192,2.704,0.519,3.979l-3.808,1.237C-19.738,3.55-20,1.808-20,0
				c0-6.293,2.912-11.899,7.455-15.565l2.35,3.235C-13.74-9.396-16-4.962-16,0z"/>
		</g>
		<g opacity="0.05">
			<g>
				<path d="M-19.289,4.216l3.597-1.169c0.062,0.313,0.132,0.624,0.211,0.931l-3.808,1.237C-19.738,3.55-20,1.808-20,0
					c0-0.186,0.011-0.368,0.016-0.553C-19.945,1.094-19.701,2.689-19.289,4.216z"/>
			</g>
			<g>
				<path d="M-16-1c0-4.749,2.084-8.999,5.37-11.929l0.435,0.599c-3.454,2.859-5.671,7.146-5.784,11.953
					C-15.987-0.584-16-0.791-16-1z"/>
			</g>
		</g>
		<g>
			<path fill="#FFBE2A" d="M-14.869,5.883C-12.641,11.509-7.321,15.558-1,15.95v4c-8.097-0.401-14.914-5.603-17.672-12.831
				L-14.869,5.883z"/>
		</g>
		<g opacity="0.05">
			<path d="M-18.672,7.118l0.372-0.121C-15.339,13.762-8.763,18.565-1,18.95v1C-9.097,19.548-15.914,14.347-18.672,7.118z"/>
		</g>
	</g>
	<g>
		<g>
			<path fill="#ED1E24" d="M16,0c0,1.376-0.192,2.704-0.519,3.979l3.808,1.237C19.738,3.55,20,1.808,20,0
				c0-6.293-2.912-11.899-7.455-15.565l-2.35,3.235C13.74-9.396,16-4.962,16,0z"/>
		</g>
		<g opacity="0.05">
			<g>
				<path d="M19.289,4.216c0.412-1.527,0.656-3.121,0.695-4.769C19.989-0.368,20-0.186,20,0c0,1.808-0.262,3.55-0.711,5.216
					l-3.808-1.237c0.079-0.307,0.149-0.618,0.211-0.931L19.289,4.216z"/>
			</g>
			<g>
				<path d="M16-1c0,0.209-0.013,0.416-0.021,0.623c-0.113-4.807-2.329-9.094-5.784-11.953l0.435-0.599C13.916-9.999,16-5.749,16-1z
					"/>
			</g>
		</g>
		<g>
			<path fill="#F47721" d="M14.869,5.883C12.641,11.509,7.321,15.558,1,15.95v4c8.097-0.401,14.914-5.603,17.672-12.831
				L14.869,5.883z"/>
		</g>
		<g opacity="0.05">
			<path d="M18.3,6.997l0.372,0.121C15.914,14.347,9.097,19.548,1,19.95v-1C8.763,18.565,15.339,13.762,18.3,6.997z"/>
		</g>
	</g>
	<path fill="#807F7F" d="M0,13.254"/>
	<path fill="#D9D9D8" d="M5-18c0-1.1-0.9-2-2-2h-6c-1.1,0-2,0.9-2,2v1c0,1.1,0.9,2,2,2h6c1.1,0,2-0.9,2-2V-18z"/>
	<path opacity="0.05" d="M3-15h-6c-1.1,0-2-0.9-2-2v-1c0,1.1,0.9,2,2,2h6c1.1,0,2-0.9,2-2v1C5-15.9,4.1-15,3-15z"/>
</symbol>
<g>
</g>
<g>
	<path fill="#4AA4EC" d="M49.806,20.873c-1.507-2.412-3.429-4.41-5.615-5.965l-4.434,6.217c1.391,0.989,2.615,2.259,3.574,3.794
		c3.904,6.248,1.997,14.507-4.251,18.412c-0.502,0.314-1.02,0.576-1.545,0.816l3.169,6.955c0.823-0.376,1.633-0.803,2.421-1.295
		C52.944,43.671,55.941,30.692,49.806,20.873z"/>
	<path opacity="0.04" d="M47.685,18.081c-1.614-1.824-3.554-3.41-5.828-4.619c-0.051-0.027-0.103-0.048-0.155-0.073l-4.502,6.312
		c0.361,0.153,0.72,0.315,1.072,0.502c1.798,0.956,3.274,2.276,4.416,3.81l6.004-0.059L47.685,18.081z"/>
	<polygon fill="#FFFFFF" points="45.296,10.072 47.509,22.966 36.02,23.078 	"/>
</g>
<g>
	<path fill="#3D566E" d="M37.533,44.141c-3.651,1.659-8,1.681-11.806-0.343c-4.907-2.609-7.518-7.862-7.023-13.078l-7.601-0.732
		c-0.778,8.196,3.329,16.451,11.04,20.551c5.981,3.18,12.822,3.162,18.559,0.555L37.533,44.141z"/>
	<path fill="#FFFFFF" d="M18.719,30.721c0.389-3.991,2.544-7.768,6.2-10.053c4.713-2.945,10.568-2.58,14.837,0.457l4.434-6.217
		c-6.709-4.772-15.912-5.343-23.318-0.715c-5.745,3.59-9.149,9.523-9.76,15.795L18.719,30.721z"/>
	<polygon fill="#3D566E" points="16.416,23.082 22.252,32.979 6.364,31.45 	"/>
</g>
<line fill="#FFBE2A" x1="40.702" y1="51.094" x2="37.533" y2="44.141"/>
<path opacity="0.08" d="M36.241,52.549c1.535-0.319,3.032-0.805,4.46-1.454l-3.169-6.953c-1.253,0.569-2.591,0.93-3.959,1.097
	l-2.953,5.235L36.241,52.549z"/>
<polygon fill="#4AA4EC" points="37.714,39.934 44.339,54.473 32.069,49.942 "/>
</svg>
