<?xml version="1.0" encoding="utf-8"?>
<!-- Generator: Adobe Illustrator 20.1.0, SVG Export Plug-In . SVG Version: 6.00 Build 0)  -->
<svg version="1.1" id="icons" xmlns="http://www.w3.org/2000/svg" xmlns:xlink="http://www.w3.org/1999/xlink" x="0px" y="0px"
	 viewBox="0 0 64 64" enable-background="new 0 0 64 64" xml:space="preserve">
<symbol  id="gauge-blank" viewBox="-28 -28 56 56">
	<g>
		<circle fill="#CCCCCC" cx="0" cy="0" r="28"/>
	</g>
	<g>
		<circle fill="#FFFFFF" cx="0" cy="0" r="24"/>
	</g>
	<g>
		
			<ellipse transform="matrix(0.5878 -0.809 0.809 0.5878 1.406295e-05 -5.360487e-06)" fill="#FFFFFF" cx="0" cy="0" rx="24" ry="24"/>
	</g>
	<g>
		<path fill="#F3F3F3" d="M0,22c12.919,0,23.45-10.209,23.975-23C23.988-0.668,24-0.335,24,0c0,13.255-10.745,24-24,24
			S-24,13.255-24,0c0-0.335,0.012-0.668,0.025-1C-23.45,11.791-12.919,22,0,22z"/>
	</g>
	<g>
		<g>
			<path fill="#FAAB67" d="M-13.326,8.849C-10.634,12.896-6.146,15.631-1,15.95v4c-6.625-0.328-12.396-3.863-15.788-9.102
				L-13.326,8.849z"/>
		</g>
	</g>
	<g>
		<g>
			<path fill="#24CB7F" d="M-16,0c0,1.376,0.192,2.704,0.519,3.979l-3.808,1.237C-19.738,3.55-20,1.808-20,0
				c0-6.293,2.912-11.899,7.455-15.565l2.35,3.235C-13.74-9.396-16-4.962-16,0z"/>
		</g>
		<g opacity="0.05">
			<g>
				<path d="M-19.289,4.216l3.597-1.169c0.062,0.313,0.132,0.624,0.211,0.931l-3.808,1.237C-19.738,3.55-20,1.808-20,0
					c0-0.186,0.011-0.368,0.016-0.553C-19.945,1.094-19.701,2.689-19.289,4.216z"/>
			</g>
			<g>
				<path d="M-16-1c0-4.749,2.084-8.999,5.37-11.929l0.435,0.599c-3.454,2.859-5.671,7.146-5.784,11.953
					C-15.987-0.584-16-0.791-16-1z"/>
			</g>
		</g>
		<g>
			<path fill="#FFBE2A" d="M-14.869,5.883C-12.641,11.509-7.321,15.558-1,15.95v4c-8.097-0.401-14.914-5.603-17.672-12.831
				L-14.869,5.883z"/>
		</g>
		<g opacity="0.05">
			<path d="M-18.672,7.118l0.372-0.121C-15.339,13.762-8.763,18.565-1,18.95v1C-9.097,19.548-15.914,14.347-18.672,7.118z"/>
		</g>
	</g>
	<g>
		<g>
			<path fill="#ED1E24" d="M16,0c0,1.376-0.192,2.704-0.519,3.979l3.808,1.237C19.738,3.55,20,1.808,20,0
				c0-6.293-2.912-11.899-7.455-15.565l-2.35,3.235C13.74-9.396,16-4.962,16,0z"/>
		</g>
		<g opacity="0.05">
			<g>
				<path d="M19.289,4.216c0.412-1.527,0.656-3.121,0.695-4.769C19.989-0.368,20-0.186,20,0c0,1.808-0.262,3.55-0.711,5.216
					l-3.808-1.237c0.079-0.307,0.149-0.618,0.211-0.931L19.289,4.216z"/>
			</g>
			<g>
				<path d="M16-1c0,0.209-0.013,0.416-0.021,0.623c-0.113-4.807-2.329-9.094-5.784-11.953l0.435-0.599C13.916-9.999,16-5.749,16-1z
					"/>
			</g>
		</g>
		<g>
			<path fill="#F47721" d="M14.869,5.883C12.641,11.509,7.321,15.558,1,15.95v4c8.097-0.401,14.914-5.603,17.672-12.831
				L14.869,5.883z"/>
		</g>
		<g opacity="0.05">
			<path d="M18.3,6.997l0.372,0.121C15.914,14.347,9.097,19.548,1,19.95v-1C8.763,18.565,15.339,13.762,18.3,6.997z"/>
		</g>
	</g>
	<path fill="#807F7F" d="M0,13.254"/>
	<path fill="#D9D9D8" d="M5-18c0-1.1-0.9-2-2-2h-6c-1.1,0-2,0.9-2,2v1c0,1.1,0.9,2,2,2h6c1.1,0,2-0.9,2-2V-18z"/>
	<path opacity="0.05" d="M3-15h-6c-1.1,0-2-0.9-2-2v-1c0,1.1,0.9,2,2,2h6c1.1,0,2-0.9,2-2v1C5-15.9,4.1-15,3-15z"/>
</symbol>
<symbol  id="gauge-blank_2" viewBox="-28 -28 56 56">
	<g>
		<circle fill="#CCCCCC" cx="0" cy="0" r="28"/>
	</g>
	<g>
		<circle fill="#FFFFFF" cx="0" cy="0" r="24"/>
	</g>
	<g>
		
			<ellipse transform="matrix(0.5878 -0.809 0.809 0.5878 1.406295e-05 -5.360487e-06)" fill="#FFFFFF" cx="0" cy="0" rx="24" ry="24"/>
	</g>
	<g>
		<path fill="#F3F3F3" d="M0,22c12.919,0,23.45-10.209,23.975-23C23.988-0.668,24-0.335,24,0c0,13.255-10.745,24-24,24
			S-24,13.255-24,0c0-0.335,0.012-0.668,0.025-1C-23.45,11.791-12.919,22,0,22z"/>
	</g>
	<g>
		<g>
			<path fill="#FAAB67" d="M-13.326,8.849C-10.634,12.896-6.146,15.631-1,15.95v4c-6.625-0.328-12.396-3.863-15.788-9.102
				L-13.326,8.849z"/>
		</g>
	</g>
	<g>
		<g>
			<path fill="#24CB7F" d="M-16,0c0,1.376,0.192,2.704,0.519,3.979l-3.808,1.237C-19.738,3.55-20,1.808-20,0
				c0-6.293,2.912-11.899,7.455-15.565l2.35,3.235C-13.74-9.396-16-4.962-16,0z"/>
		</g>
		<g opacity="0.05">
			<g>
				<path d="M-19.289,4.216l3.597-1.169c0.062,0.313,0.132,0.624,0.211,0.931l-3.808,1.237C-19.738,3.55-20,1.808-20,0
					c0-0.186,0.011-0.368,0.016-0.553C-19.945,1.094-19.701,2.689-19.289,4.216z"/>
			</g>
			<g>
				<path d="M-16-1c0-4.749,2.084-8.999,5.37-11.929l0.435,0.599c-3.454,2.859-5.671,7.146-5.784,11.953
					C-15.987-0.584-16-0.791-16-1z"/>
			</g>
		</g>
		<g>
			<path fill="#FFBE2A" d="M-14.869,5.883C-12.641,11.509-7.321,15.558-1,15.95v4c-8.097-0.401-14.914-5.603-17.672-12.831
				L-14.869,5.883z"/>
		</g>
		<g opacity="0.05">
			<path d="M-18.672,7.118l0.372-0.121C-15.339,13.762-8.763,18.565-1,18.95v1C-9.097,19.548-15.914,14.347-18.672,7.118z"/>
		</g>
	</g>
	<g>
		<g>
			<path fill="#ED1E24" d="M16,0c0,1.376-0.192,2.704-0.519,3.979l3.808,1.237C19.738,3.55,20,1.808,20,0
				c0-6.293-2.912-11.899-7.455-15.565l-2.35,3.235C13.74-9.396,16-4.962,16,0z"/>
		</g>
		<g opacity="0.05">
			<g>
				<path d="M19.289,4.216c0.412-1.527,0.656-3.121,0.695-4.769C19.989-0.368,20-0.186,20,0c0,1.808-0.262,3.55-0.711,5.216
					l-3.808-1.237c0.079-0.307,0.149-0.618,0.211-0.931L19.289,4.216z"/>
			</g>
			<g>
				<path d="M16-1c0,0.209-0.013,0.416-0.021,0.623c-0.113-4.807-2.329-9.094-5.784-11.953l0.435-0.599C13.916-9.999,16-5.749,16-1z
					"/>
			</g>
		</g>
		<g>
			<path fill="#F47721" d="M14.869,5.883C12.641,11.509,7.321,15.558,1,15.95v4c8.097-0.401,14.914-5.603,17.672-12.831
				L14.869,5.883z"/>
		</g>
		<g opacity="0.05">
			<path d="M18.3,6.997l0.372,0.121C15.914,14.347,9.097,19.548,1,19.95v-1C8.763,18.565,15.339,13.762,18.3,6.997z"/>
		</g>
	</g>
	<path fill="#807F7F" d="M0,13.254"/>
	<path fill="#D9D9D8" d="M5-18c0-1.1-0.9-2-2-2h-6c-1.1,0-2,0.9-2,2v1c0,1.1,0.9,2,2,2h6c1.1,0,2-0.9,2-2V-18z"/>
	<path opacity="0.05" d="M3-15h-6c-1.1,0-2-0.9-2-2v-1c0,1.1,0.9,2,2,2h6c1.1,0,2-0.9,2-2v1C5-15.9,4.1-15,3-15z"/>
</symbol>
<g>
</g>
<path opacity="0.12" d="M41.83,37.005c0.707,0.734,1.753,1.019,2.778,0.859c1.581-0.247,3.259,0.074,4.675,1.031
	c1.858,1.255,2.806,3.292,2.711,5.327c-0.014,0.308-0.371,0.485-0.633,0.308l-3.811-2.575c-0.361-0.244-0.859-0.159-1.112,0.189
	l-2.29,3.155c-0.253,0.349-0.165,0.829,0.196,1.073l3.811,2.575c0.262,0.177,0.211,0.561-0.084,0.679
	c-1.95,0.782-4.257,0.62-6.115-0.636c-1.921-1.298-2.87-3.43-2.698-5.533c0.068-0.831-0.258-1.645-0.846-2.255L24.17,26.995
	c-0.707-0.734-1.753-1.019-2.778-0.859c-1.581,0.247-3.259-0.074-4.675-1.031c-1.858-1.255-2.806-3.292-2.711-5.327
	c0.014-0.308,0.371-0.485,0.633-0.308l3.811,2.575c0.361,0.244,0.859,0.159,1.112-0.189l2.29-3.155
	c0.253-0.349,0.165-0.829-0.196-1.073l-3.811-2.575c-0.262-0.177-0.211-0.561,0.084-0.679c1.95-0.782,4.257-0.62,6.115,0.636
	c1.921,1.298,2.87,3.43,2.698,5.533c-0.068,0.831,0.259,1.646,0.847,2.256L41.83,37.005z"/>
<path fill="#CACFD2" d="M41.83,36.005c0.707,0.734,1.753,1.019,2.778,0.859c1.581-0.247,3.259,0.074,4.675,1.031
	c1.858,1.255,2.806,3.292,2.711,5.327c-0.014,0.308-0.371,0.485-0.633,0.308l-3.811-2.575c-0.361-0.244-0.859-0.159-1.112,0.189
	l-2.29,3.155c-0.253,0.349-0.165,0.829,0.196,1.073l3.811,2.575c0.262,0.177,0.211,0.561-0.084,0.679
	c-1.95,0.782-4.257,0.62-6.115-0.636c-1.921-1.298-2.87-3.43-2.698-5.533c0.068-0.831-0.258-1.645-0.846-2.255L24.17,25.995
	c-0.707-0.734-1.753-1.019-2.778-0.859c-1.581,0.247-3.259-0.074-4.675-1.031c-1.858-1.255-2.806-3.292-2.711-5.327
	c0.014-0.308,0.371-0.485,0.633-0.308l3.811,2.575c0.361,0.244,0.859,0.159,1.112-0.189l2.29-3.155
	c0.253-0.349,0.165-0.829-0.196-1.073l-3.811-2.575c-0.262-0.177-0.211-0.561,0.084-0.679c1.95-0.782,4.257-0.62,6.115,0.636
	c1.921,1.298,2.87,3.43,2.698,5.533c-0.068,0.831,0.259,1.646,0.847,2.256L41.83,36.005z"/>
<path opacity="0.12" d="M49.586,14l-3.183,1.569c-0.487,0.24-0.855,0.667-1.02,1.183l-0.389,1.213
	c-0.194,0.606-0.531,1.157-0.981,1.607L27.901,35.685l-0.716-0.716c-1.27-1.27-1.807-1.039-2.134-0.711
	c-0.444,0.444-0.765,2.188-2.134,3.557c-0.849,0.849-3.728,2.305-4.982,3.559c-3.323,3.323-6.311,7.913-4.266,9.957
	s6.634-0.943,9.957-4.266c1.254-1.254,2.71-4.133,3.559-4.982c1.369-1.369,3.113-1.69,3.557-2.134
	c0.327-0.327,0.559-0.864-0.711-2.134l-0.716-0.716l16.112-16.112c0.45-0.45,1.001-0.786,1.607-0.981l1.213-0.389
	c0.516-0.166,0.944-0.534,1.183-1.02L51,15.414L49.586,14z"/>
<path fill="#FFFFFF" d="M44.013,18.573L20.349,42.237l1.414,1.414l23.665-23.664c0.45-0.45,1.001-0.786,1.607-0.981l1.213-0.389
	c0.516-0.166,0.944-0.534,1.183-1.02L51,14.414L49.586,13l-3.183,1.569c-0.487,0.24-0.855,0.667-1.02,1.183l-0.389,1.214
	C44.799,17.572,44.463,18.123,44.013,18.573z"/>
<g id="_x32_NkLMe.tif">
	<g>
		<path fill="#3D566E" d="M30.031,36.814c1.27,1.27,1.039,1.807,0.711,2.134c-0.444,0.444-2.188,0.765-3.557,2.134
			c-0.849,0.849-2.305,3.728-3.559,4.982c-3.323,3.323-7.913,6.311-9.957,4.266c-2.045-2.045,0.943-6.634,4.266-9.957
			c1.254-1.254,4.133-2.71,4.982-3.559c1.369-1.369,1.69-3.113,2.134-3.557c0.327-0.327,0.864-0.559,2.134,0.711L30.031,36.814z"/>
	</g>
</g>
</svg>
