<svg xmlns="http://www.w3.org/2000/svg" viewBox="0 0 64 64" enable-background="new 0 0 64 64"><symbol viewBox="-28 -28 56 56"><path fill="#ccc" d="M0-28c15.464 0 28 12.536 28 28s-12.536 28-28 28-28-12.536-28-28 12.536-28 28-28z"/><path fill="#fff" d="M0-24c13.255 0 24 10.745 24 24s-10.745 24-24 24-24-10.745-24-24 10.745-24 24-24zM14.107 19.416c-10.723 7.791-25.732 5.414-33.523-5.31s-5.414-25.732 5.31-33.523 25.732-5.414 33.523 5.31 5.413 25.732-5.31 33.523z"/><path fill="#F3F3F3" d="M0 22c12.919 0 23.45-10.209 23.975-23 .013.332.025.665.025 1 0 13.255-10.745 24-24 24s-24-10.745-24-24c0-.335.012-.668.025-1 .525 12.791 11.056 23 23.975 23z"/><path fill="#FAAB67" d="M-13.326 8.849c2.692 4.047 7.18 6.782 12.326 7.101v4c-6.625-.328-12.396-3.863-15.788-9.102l3.462-1.999z"/><path fill="#24CB7F" d="M-16 0c0 1.376.192 2.704.519 3.979l-3.808 1.237c-.449-1.666-.711-3.408-.711-5.216 0-6.293 2.912-11.899 7.455-15.565l2.35 3.235c-3.545 2.934-5.805 7.368-5.805 12.33z"/><g opacity=".05"><path d="M-19.289 4.216l3.597-1.169c.062.313.132.624.211.931l-3.808 1.237c-.449-1.665-.711-3.407-.711-5.215l.016-.553c.039 1.647.283 3.242.695 4.769zM-16-1c0-4.749 2.084-8.999 5.37-11.929l.435.599c-3.454 2.859-5.671 7.146-5.784 11.953l-.021-.623z"/></g><path fill="#FFBE2A" d="M-14.869 5.883c2.228 5.626 7.548 9.675 13.869 10.067v4c-8.097-.401-14.914-5.603-17.672-12.831l3.803-1.236z"/><path d="M-18.672 7.118l.372-.121c2.961 6.765 9.537 11.568 17.3 11.953v1c-8.097-.402-14.914-5.603-17.672-12.832z" opacity=".05"/><path fill="#ED1E24" d="M16 0c0 1.376-.192 2.704-.519 3.979l3.808 1.237c.449-1.666.711-3.408.711-5.216 0-6.293-2.912-11.899-7.455-15.565l-2.35 3.235c3.545 2.934 5.805 7.368 5.805 12.33z"/><g opacity=".05"><path d="M19.289 4.216c.412-1.527.656-3.121.695-4.769l.016.553c0 1.808-.262 3.55-.711 5.216l-3.808-1.237c.079-.307.149-.618.211-.931l3.597 1.168zM16-1l-.021.623c-.113-4.807-2.329-9.094-5.784-11.953l.435-.599c3.286 2.93 5.37 7.18 5.37 11.929z"/></g><path fill="#F47721" d="M14.869 5.883c-2.228 5.626-7.548 9.675-13.869 10.067v4c8.097-.401 14.914-5.603 17.672-12.831l-3.803-1.236z"/><path d="M18.3 6.997l.372.121c-2.758 7.229-9.575 12.43-17.672 12.832v-1c7.763-.385 14.339-5.188 17.3-11.953z" opacity=".05"/><path fill="#807F7F" d="M0 13.254"/><path fill="#D9D9D8" d="M5-18c0-1.1-.9-2-2-2h-6c-1.1 0-2 .9-2 2v1c0 1.1.9 2 2 2h6c1.1 0 2-.9 2-2v-1z"/><path opacity=".05" d="M3-15h-6c-1.1 0-2-.9-2-2v-1c0 1.1.9 2 2 2h6c1.1 0 2-.9 2-2v1c0 1.1-.9 2-2 2z"/></symbol><symbol viewBox="-28 -28 56 56"><path fill="#ccc" d="M0-28c15.464 0 28 12.536 28 28s-12.536 28-28 28-28-12.536-28-28 12.536-28 28-28z"/><path fill="#fff" d="M0-24c13.255 0 24 10.745 24 24s-10.745 24-24 24-24-10.745-24-24 10.745-24 24-24zM14.107 19.416c-10.723 7.791-25.732 5.414-33.523-5.31s-5.414-25.732 5.31-33.523 25.732-5.414 33.523 5.31 5.413 25.732-5.31 33.523z"/><path fill="#F3F3F3" d="M0 22c12.919 0 23.45-10.209 23.975-23 .013.332.025.665.025 1 0 13.255-10.745 24-24 24s-24-10.745-24-24c0-.335.012-.668.025-1 .525 12.791 11.056 23 23.975 23z"/><path fill="#FAAB67" d="M-13.326 8.849c2.692 4.047 7.18 6.782 12.326 7.101v4c-6.625-.328-12.396-3.863-15.788-9.102l3.462-1.999z"/><path fill="#24CB7F" d="M-16 0c0 1.376.192 2.704.519 3.979l-3.808 1.237c-.449-1.666-.711-3.408-.711-5.216 0-6.293 2.912-11.899 7.455-15.565l2.35 3.235c-3.545 2.934-5.805 7.368-5.805 12.33z"/><g opacity=".05"><path d="M-19.289 4.216l3.597-1.169c.062.313.132.624.211.931l-3.808 1.237c-.449-1.665-.711-3.407-.711-5.215l.016-.553c.039 1.647.283 3.242.695 4.769zM-16-1c0-4.749 2.084-8.999 5.37-11.929l.435.599c-3.454 2.859-5.671 7.146-5.784 11.953l-.021-.623z"/></g><path fill="#FFBE2A" d="M-14.869 5.883c2.228 5.626 7.548 9.675 13.869 10.067v4c-8.097-.401-14.914-5.603-17.672-12.831l3.803-1.236z"/><path d="M-18.672 7.118l.372-.121c2.961 6.765 9.537 11.568 17.3 11.953v1c-8.097-.402-14.914-5.603-17.672-12.832z" opacity=".05"/><path fill="#ED1E24" d="M16 0c0 1.376-.192 2.704-.519 3.979l3.808 1.237c.449-1.666.711-3.408.711-5.216 0-6.293-2.912-11.899-7.455-15.565l-2.35 3.235c3.545 2.934 5.805 7.368 5.805 12.33z"/><g opacity=".05"><path d="M19.289 4.216c.412-1.527.656-3.121.695-4.769l.016.553c0 1.808-.262 3.55-.711 5.216l-3.808-1.237c.079-.307.149-.618.211-.931l3.597 1.168zM16-1l-.021.623c-.113-4.807-2.329-9.094-5.784-11.953l.435-.599c3.286 2.93 5.37 7.18 5.37 11.929z"/></g><path fill="#F47721" d="M14.869 5.883c-2.228 5.626-7.548 9.675-13.869 10.067v4c8.097-.401 14.914-5.603 17.672-12.831l-3.803-1.236z"/><path d="M18.3 6.997l.372.121c-2.758 7.229-9.575 12.43-17.672 12.832v-1c7.763-.385 14.339-5.188 17.3-11.953z" opacity=".05"/><path fill="#807F7F" d="M0 13.254"/><path fill="#D9D9D8" d="M5-18c0-1.1-.9-2-2-2h-6c-1.1 0-2 .9-2 2v1c0 1.1.9 2 2 2h6c1.1 0 2-.9 2-2v-1z"/><path opacity=".05" d="M3-15h-6c-1.1 0-2-.9-2-2v-1c0 1.1.9 2 2 2h6c1.1 0 2-.9 2-2v1c0 1.1-.9 2-2 2z"/></symbol><g><path opacity=".1" d="M50 51h-36c-1.105 0-2-.895-2-2v-26c0-1.105.895-2 2-2h36c1.105 0 2 .895 2 2v26c0 1.105-.895 2-2 2z"/><path fill="#fff" d="M50 50h-36c-1.105 0-2-.895-2-2v-26c0-1.105.895-2 2-2h36c1.105 0 2 .895 2 2v26c0 1.105-.895 2-2 2z"/><path fill="#BDC3C7" d="M34 26h-4c-1.105 0-2-.895-2-2v-10c0-1.105.895-2 2-2h4c1.105 0 2 .895 2 2v10c0 1.105-.895 2-2 2zM16 28h18v18h-18zM38 33h10v2h-10zM38 39h10v2h-10z"/><circle fill="#3D566E" cx="25" cy="34" r="3"/><path fill="#3D566E" d="M31 44c0-3.314-2.686-6-6-6s-6 2.686-6 6"/><circle fill="#3D566E" cx="32" cy="16" r="2"/></g></svg>