<?xml version="1.0" encoding="utf-8"?>
<!-- Generator: Adobe Illustrator 20.1.0, SVG Export Plug-In . SVG Version: 6.00 Build 0)  -->
<svg version="1.1" id="icons" xmlns="http://www.w3.org/2000/svg" xmlns:xlink="http://www.w3.org/1999/xlink" x="0px" y="0px"
	 viewBox="0 0 64 64" enable-background="new 0 0 64 64" xml:space="preserve">
<symbol  id="gauge-blank" viewBox="-28 -28 56 56">
	<g>
		<circle fill="#CCCCCC" cx="0" cy="0" r="28"/>
	</g>
	<g>
		<circle fill="#FFFFFF" cx="0" cy="0" r="24"/>
	</g>
	<g>
		
			<ellipse transform="matrix(0.5878 -0.809 0.809 0.5878 1.406295e-05 -5.360487e-06)" fill="#FFFFFF" cx="0" cy="0" rx="24" ry="24"/>
	</g>
	<g>
		<path fill="#F3F3F3" d="M0,22c12.919,0,23.45-10.209,23.975-23C23.988-0.668,24-0.335,24,0c0,13.255-10.745,24-24,24
			S-24,13.255-24,0c0-0.335,0.012-0.668,0.025-1C-23.45,11.791-12.919,22,0,22z"/>
	</g>
	<g>
		<g>
			<path fill="#FAAB67" d="M-13.326,8.849C-10.634,12.896-6.146,15.631-1,15.95v4c-6.625-0.328-12.396-3.863-15.788-9.102
				L-13.326,8.849z"/>
		</g>
	</g>
	<g>
		<g>
			<path fill="#24CB7F" d="M-16,0c0,1.376,0.192,2.704,0.519,3.979l-3.808,1.237C-19.738,3.55-20,1.808-20,0
				c0-6.293,2.912-11.899,7.455-15.565l2.35,3.235C-13.74-9.396-16-4.962-16,0z"/>
		</g>
		<g opacity="0.05">
			<g>
				<path d="M-19.289,4.216l3.597-1.169c0.062,0.313,0.132,0.624,0.211,0.931l-3.808,1.237C-19.738,3.55-20,1.808-20,0
					c0-0.186,0.011-0.368,0.016-0.553C-19.945,1.094-19.701,2.689-19.289,4.216z"/>
			</g>
			<g>
				<path d="M-16-1c0-4.749,2.084-8.999,5.37-11.929l0.435,0.599c-3.454,2.859-5.671,7.146-5.784,11.953
					C-15.987-0.584-16-0.791-16-1z"/>
			</g>
		</g>
		<g>
			<path fill="#FFBE2A" d="M-14.869,5.883C-12.641,11.509-7.321,15.558-1,15.95v4c-8.097-0.401-14.914-5.603-17.672-12.831
				L-14.869,5.883z"/>
		</g>
		<g opacity="0.05">
			<path d="M-18.672,7.118l0.372-0.121C-15.339,13.762-8.763,18.565-1,18.95v1C-9.097,19.548-15.914,14.347-18.672,7.118z"/>
		</g>
	</g>
	<g>
		<g>
			<path fill="#ED1E24" d="M16,0c0,1.376-0.192,2.704-0.519,3.979l3.808,1.237C19.738,3.55,20,1.808,20,0
				c0-6.293-2.912-11.899-7.455-15.565l-2.35,3.235C13.74-9.396,16-4.962,16,0z"/>
		</g>
		<g opacity="0.05">
			<g>
				<path d="M19.289,4.216c0.412-1.527,0.656-3.121,0.695-4.769C19.989-0.368,20-0.186,20,0c0,1.808-0.262,3.55-0.711,5.216
					l-3.808-1.237c0.079-0.307,0.149-0.618,0.211-0.931L19.289,4.216z"/>
			</g>
			<g>
				<path d="M16-1c0,0.209-0.013,0.416-0.021,0.623c-0.113-4.807-2.329-9.094-5.784-11.953l0.435-0.599C13.916-9.999,16-5.749,16-1z
					"/>
			</g>
		</g>
		<g>
			<path fill="#F47721" d="M14.869,5.883C12.641,11.509,7.321,15.558,1,15.95v4c8.097-0.401,14.914-5.603,17.672-12.831
				L14.869,5.883z"/>
		</g>
		<g opacity="0.05">
			<path d="M18.3,6.997l0.372,0.121C15.914,14.347,9.097,19.548,1,19.95v-1C8.763,18.565,15.339,13.762,18.3,6.997z"/>
		</g>
	</g>
	<path fill="#807F7F" d="M0,13.254"/>
	<path fill="#D9D9D8" d="M5-18c0-1.1-0.9-2-2-2h-6c-1.1,0-2,0.9-2,2v1c0,1.1,0.9,2,2,2h6c1.1,0,2-0.9,2-2V-18z"/>
	<path opacity="0.05" d="M3-15h-6c-1.1,0-2-0.9-2-2v-1c0,1.1,0.9,2,2,2h6c1.1,0,2-0.9,2-2v1C5-15.9,4.1-15,3-15z"/>
</symbol>
<symbol  id="gauge-blank_2" viewBox="-28 -28 56 56">
	<g>
		<circle fill="#CCCCCC" cx="0" cy="0" r="28"/>
	</g>
	<g>
		<circle fill="#FFFFFF" cx="0" cy="0" r="24"/>
	</g>
	<g>
		
			<ellipse transform="matrix(0.5878 -0.809 0.809 0.5878 1.406295e-05 -5.360487e-06)" fill="#FFFFFF" cx="0" cy="0" rx="24" ry="24"/>
	</g>
	<g>
		<path fill="#F3F3F3" d="M0,22c12.919,0,23.45-10.209,23.975-23C23.988-0.668,24-0.335,24,0c0,13.255-10.745,24-24,24
			S-24,13.255-24,0c0-0.335,0.012-0.668,0.025-1C-23.45,11.791-12.919,22,0,22z"/>
	</g>
	<g>
		<g>
			<path fill="#FAAB67" d="M-13.326,8.849C-10.634,12.896-6.146,15.631-1,15.95v4c-6.625-0.328-12.396-3.863-15.788-9.102
				L-13.326,8.849z"/>
		</g>
	</g>
	<g>
		<g>
			<path fill="#24CB7F" d="M-16,0c0,1.376,0.192,2.704,0.519,3.979l-3.808,1.237C-19.738,3.55-20,1.808-20,0
				c0-6.293,2.912-11.899,7.455-15.565l2.35,3.235C-13.74-9.396-16-4.962-16,0z"/>
		</g>
		<g opacity="0.05">
			<g>
				<path d="M-19.289,4.216l3.597-1.169c0.062,0.313,0.132,0.624,0.211,0.931l-3.808,1.237C-19.738,3.55-20,1.808-20,0
					c0-0.186,0.011-0.368,0.016-0.553C-19.945,1.094-19.701,2.689-19.289,4.216z"/>
			</g>
			<g>
				<path d="M-16-1c0-4.749,2.084-8.999,5.37-11.929l0.435,0.599c-3.454,2.859-5.671,7.146-5.784,11.953
					C-15.987-0.584-16-0.791-16-1z"/>
			</g>
		</g>
		<g>
			<path fill="#FFBE2A" d="M-14.869,5.883C-12.641,11.509-7.321,15.558-1,15.95v4c-8.097-0.401-14.914-5.603-17.672-12.831
				L-14.869,5.883z"/>
		</g>
		<g opacity="0.05">
			<path d="M-18.672,7.118l0.372-0.121C-15.339,13.762-8.763,18.565-1,18.95v1C-9.097,19.548-15.914,14.347-18.672,7.118z"/>
		</g>
	</g>
	<g>
		<g>
			<path fill="#ED1E24" d="M16,0c0,1.376-0.192,2.704-0.519,3.979l3.808,1.237C19.738,3.55,20,1.808,20,0
				c0-6.293-2.912-11.899-7.455-15.565l-2.35,3.235C13.74-9.396,16-4.962,16,0z"/>
		</g>
		<g opacity="0.05">
			<g>
				<path d="M19.289,4.216c0.412-1.527,0.656-3.121,0.695-4.769C19.989-0.368,20-0.186,20,0c0,1.808-0.262,3.55-0.711,5.216
					l-3.808-1.237c0.079-0.307,0.149-0.618,0.211-0.931L19.289,4.216z"/>
			</g>
			<g>
				<path d="M16-1c0,0.209-0.013,0.416-0.021,0.623c-0.113-4.807-2.329-9.094-5.784-11.953l0.435-0.599C13.916-9.999,16-5.749,16-1z
					"/>
			</g>
		</g>
		<g>
			<path fill="#F47721" d="M14.869,5.883C12.641,11.509,7.321,15.558,1,15.95v4c8.097-0.401,14.914-5.603,17.672-12.831
				L14.869,5.883z"/>
		</g>
		<g opacity="0.05">
			<path d="M18.3,6.997l0.372,0.121C15.914,14.347,9.097,19.548,1,19.95v-1C8.763,18.565,15.339,13.762,18.3,6.997z"/>
		</g>
	</g>
	<path fill="#807F7F" d="M0,13.254"/>
	<path fill="#D9D9D8" d="M5-18c0-1.1-0.9-2-2-2h-6c-1.1,0-2,0.9-2,2v1c0,1.1,0.9,2,2,2h6c1.1,0,2-0.9,2-2V-18z"/>
	<path opacity="0.05" d="M3-15h-6c-1.1,0-2-0.9-2-2v-1c0,1.1,0.9,2,2,2h6c1.1,0,2-0.9,2-2v1C5-15.9,4.1-15,3-15z"/>
</symbol>
<path opacity="0.9" fill="#3D566E" d="M51.531,16.606l-4.137-4.137c-0.625-0.625-1.638-0.625-2.263,0L44,13.6l2.136,2.136
	l-4.458,3.086l3.5,3.5l3.086-4.458L50.4,20l1.131-1.131C52.156,18.244,52.156,17.231,51.531,16.606z"/>
<g>
</g>
<path opacity="0.12" d="M54,35.165v-4.331c0-0.483-0.346-0.897-0.821-0.984l-2.952-0.537c-0.388-0.071-0.688-0.366-0.785-0.748
	c-1.616-6.376-6.632-11.392-13.008-13.008c-0.382-0.097-0.677-0.398-0.748-0.785l-0.537-2.952C35.063,11.346,34.649,11,34.165,11
	h-4.331c-0.483,0-0.897,0.346-0.984,0.821l-0.537,2.953c-0.07,0.387-0.365,0.687-0.746,0.784c-1.696,0.431-3.294,1.105-4.76,1.979
	c-0.338,0.202-0.759,0.197-1.083-0.027l-2.474-1.713c-0.397-0.275-0.935-0.227-1.276,0.115l-3.062,3.062
	c-0.342,0.342-0.39,0.879-0.115,1.276l1.713,2.474c0.224,0.324,0.229,0.744,0.027,1.083c-0.874,1.466-1.548,3.063-1.979,4.76
	c-0.097,0.381-0.397,0.676-0.784,0.746l-2.953,0.537C10.346,29.937,10,30.351,10,30.835v4.331c0,0.483,0.346,0.897,0.821,0.984
	l2.953,0.537c0.387,0.07,0.687,0.365,0.784,0.746c0.431,1.696,1.104,3.294,1.979,4.76c0.202,0.338,0.197,0.759-0.027,1.083
	l-1.713,2.474c-0.275,0.397-0.227,0.935,0.115,1.276l3.062,3.062c0.342,0.342,0.879,0.39,1.276,0.115l2.474-1.713
	c0.324-0.224,0.744-0.229,1.083-0.027c1.466,0.874,3.063,1.548,4.76,1.979c0.381,0.097,0.676,0.397,0.746,0.784l0.537,2.953
	C28.937,54.654,29.351,55,29.835,55h4.331c0.483,0,0.897-0.346,0.984-0.821l0.537-2.953c0.07-0.387,0.365-0.687,0.746-0.784
	c1.696-0.431,3.294-1.105,4.76-1.979c0.338-0.202,0.759-0.197,1.083,0.027l2.474,1.713c0.397,0.275,0.935,0.227,1.276-0.115
	l3.062-3.062c0.342-0.342,0.39-0.879,0.115-1.276l-1.713-2.474c-0.224-0.324-0.229-0.744-0.027-1.083
	c0.874-1.466,1.548-3.063,1.979-4.76c0.097-0.381,0.397-0.676,0.784-0.746l2.953-0.537C53.654,36.063,54,35.649,54,35.165z"/>
<g>
	<path fill="#FFFFFF" d="M54,34.165v-4.331c0-0.483-0.346-0.897-0.821-0.984l-2.952-0.537c-0.388-0.071-0.688-0.366-0.785-0.748
		c-1.616-6.376-6.632-11.392-13.008-13.008c-0.382-0.097-0.677-0.398-0.748-0.785l-0.537-2.952C35.063,10.346,34.649,10,34.165,10
		h-4.331c-0.483,0-0.897,0.346-0.984,0.821l-0.537,2.953c-0.07,0.387-0.365,0.687-0.746,0.784c-1.696,0.431-3.294,1.105-4.76,1.979
		c-0.338,0.202-0.759,0.197-1.083-0.027l-2.474-1.713c-0.397-0.275-0.935-0.227-1.276,0.115l-3.062,3.062
		c-0.342,0.342-0.39,0.879-0.115,1.276l1.713,2.474c0.224,0.324,0.229,0.744,0.027,1.083c-0.874,1.466-1.548,3.063-1.979,4.76
		c-0.097,0.381-0.397,0.676-0.784,0.746l-2.953,0.537C10.346,28.937,10,29.351,10,29.835v4.331c0,0.483,0.346,0.897,0.821,0.984
		l2.953,0.537c0.387,0.07,0.687,0.365,0.784,0.746c0.431,1.696,1.104,3.294,1.979,4.76c0.202,0.338,0.197,0.759-0.027,1.083
		l-1.713,2.474c-0.275,0.397-0.227,0.935,0.115,1.276l3.062,3.062c0.342,0.342,0.879,0.39,1.276,0.115l2.474-1.713
		c0.324-0.224,0.744-0.229,1.083-0.027c1.466,0.874,3.063,1.548,4.76,1.979c0.381,0.097,0.676,0.397,0.746,0.784l0.537,2.953
		C28.937,53.654,29.351,54,29.835,54h4.331c0.483,0,0.897-0.346,0.984-0.821l0.537-2.953c0.07-0.387,0.365-0.687,0.746-0.784
		c1.696-0.431,3.294-1.105,4.76-1.979c0.338-0.202,0.759-0.197,1.083,0.027l2.474,1.713c0.397,0.275,0.935,0.227,1.276-0.115
		l3.062-3.062c0.342-0.342,0.39-0.879,0.115-1.276l-1.713-2.474c-0.224-0.324-0.229-0.744-0.027-1.083
		c0.874-1.466,1.548-3.063,1.979-4.76c0.097-0.381,0.397-0.676,0.784-0.746l2.953-0.537C53.654,35.063,54,34.649,54,34.165z"/>
</g>
<circle fill="#3D566E" cx="32" cy="32" r="15"/>
<path opacity="0.16" d="M32,18c8.115,0,14.709,6.449,14.975,14.5C46.98,32.333,47,32.169,47,32c0-8.284-6.716-15-15-15
	s-15,6.716-15,15c0,0.169,0.02,0.333,0.025,0.5C17.291,24.449,23.885,18,32,18z"/>
<path opacity="0.16" d="M40.707,40.293L34.7,34.286C34.887,33.895,35,33.462,35,33c0-1.657-1.343-3-3-3s-3,1.343-3,3s1.343,3,3,3
	c0.462,0,0.895-0.113,1.286-0.3l6.007,6.007C39.488,41.903,39.744,42,40,42s0.512-0.098,0.707-0.293
	C41.098,41.317,41.098,40.684,40.707,40.293z"/>
<g opacity="0.9">
	<path fill="#F9422A" d="M32,20.214V32l8.334,8.334c2.133-2.133,3.452-5.079,3.452-8.334C43.786,25.491,38.509,20.214,32,20.214z"/>
</g>
<g>
	<g>
		<path fill="#FFFFFF" d="M40,41c-0.256,0-0.512-0.098-0.707-0.293l-8-8c-0.391-0.391-0.391-1.023,0-1.414s1.023-0.391,1.414,0l8,8
			c0.391,0.391,0.391,1.023,0,1.414C40.512,40.903,40.256,41,40,41z"/>
	</g>
	<circle fill="#FFFFFF" cx="32" cy="32" r="3"/>
</g>
</svg>
