<?xml version="1.0" encoding="utf-8"?>
<!-- Generator: Adobe Illustrator 20.1.0, SVG Export Plug-In . SVG Version: 6.00 Build 0)  -->
<svg version="1.1" id="icons" xmlns="http://www.w3.org/2000/svg" xmlns:xlink="http://www.w3.org/1999/xlink" x="0px" y="0px"
	 viewBox="0 0 64 64" enable-background="new 0 0 64 64" xml:space="preserve">
<symbol  id="gauge-blank" viewBox="-28 -28 56 56">
	<g>
		<circle fill="#CCCCCC" cx="0" cy="0" r="28"/>
	</g>
	<g>
		<circle fill="#FFFFFF" cx="0" cy="0" r="24"/>
	</g>
	<g>
		
			<ellipse transform="matrix(0.5878 -0.809 0.809 0.5878 1.406295e-05 -5.360487e-06)" fill="#FFFFFF" cx="0" cy="0" rx="24" ry="24"/>
	</g>
	<g>
		<path fill="#F3F3F3" d="M0,22c12.919,0,23.45-10.209,23.975-23C23.988-0.668,24-0.335,24,0c0,13.255-10.745,24-24,24
			S-24,13.255-24,0c0-0.335,0.012-0.668,0.025-1C-23.45,11.791-12.919,22,0,22z"/>
	</g>
	<g>
		<g>
			<path fill="#FAAB67" d="M-13.326,8.849C-10.634,12.896-6.146,15.631-1,15.95v4c-6.625-0.328-12.396-3.863-15.788-9.102
				L-13.326,8.849z"/>
		</g>
	</g>
	<g>
		<g>
			<path fill="#24CB7F" d="M-16,0c0,1.376,0.192,2.704,0.519,3.979l-3.808,1.237C-19.738,3.55-20,1.808-20,0
				c0-6.293,2.912-11.899,7.455-15.565l2.35,3.235C-13.74-9.396-16-4.962-16,0z"/>
		</g>
		<g opacity="0.05">
			<g>
				<path d="M-19.289,4.216l3.597-1.169c0.062,0.313,0.132,0.624,0.211,0.931l-3.808,1.237C-19.738,3.55-20,1.808-20,0
					c0-0.186,0.011-0.368,0.016-0.553C-19.945,1.094-19.701,2.689-19.289,4.216z"/>
			</g>
			<g>
				<path d="M-16-1c0-4.749,2.084-8.999,5.37-11.929l0.435,0.599c-3.454,2.859-5.671,7.146-5.784,11.953
					C-15.987-0.584-16-0.791-16-1z"/>
			</g>
		</g>
		<g>
			<path fill="#FFBE2A" d="M-14.869,5.883C-12.641,11.509-7.321,15.558-1,15.95v4c-8.097-0.401-14.914-5.603-17.672-12.831
				L-14.869,5.883z"/>
		</g>
		<g opacity="0.05">
			<path d="M-18.672,7.118l0.372-0.121C-15.339,13.762-8.763,18.565-1,18.95v1C-9.097,19.548-15.914,14.347-18.672,7.118z"/>
		</g>
	</g>
	<g>
		<g>
			<path fill="#ED1E24" d="M16,0c0,1.376-0.192,2.704-0.519,3.979l3.808,1.237C19.738,3.55,20,1.808,20,0
				c0-6.293-2.912-11.899-7.455-15.565l-2.35,3.235C13.74-9.396,16-4.962,16,0z"/>
		</g>
		<g opacity="0.05">
			<g>
				<path d="M19.289,4.216c0.412-1.527,0.656-3.121,0.695-4.769C19.989-0.368,20-0.186,20,0c0,1.808-0.262,3.55-0.711,5.216
					l-3.808-1.237c0.079-0.307,0.149-0.618,0.211-0.931L19.289,4.216z"/>
			</g>
			<g>
				<path d="M16-1c0,0.209-0.013,0.416-0.021,0.623c-0.113-4.807-2.329-9.094-5.784-11.953l0.435-0.599C13.916-9.999,16-5.749,16-1z
					"/>
			</g>
		</g>
		<g>
			<path fill="#F47721" d="M14.869,5.883C12.641,11.509,7.321,15.558,1,15.95v4c8.097-0.401,14.914-5.603,17.672-12.831
				L14.869,5.883z"/>
		</g>
		<g opacity="0.05">
			<path d="M18.3,6.997l0.372,0.121C15.914,14.347,9.097,19.548,1,19.95v-1C8.763,18.565,15.339,13.762,18.3,6.997z"/>
		</g>
	</g>
	<path fill="#807F7F" d="M0,13.254"/>
	<path fill="#D9D9D8" d="M5-18c0-1.1-0.9-2-2-2h-6c-1.1,0-2,0.9-2,2v1c0,1.1,0.9,2,2,2h6c1.1,0,2-0.9,2-2V-18z"/>
	<path opacity="0.05" d="M3-15h-6c-1.1,0-2-0.9-2-2v-1c0,1.1,0.9,2,2,2h6c1.1,0,2-0.9,2-2v1C5-15.9,4.1-15,3-15z"/>
</symbol>
<symbol  id="gauge-blank_2" viewBox="-28 -28 56 56">
	<g>
		<circle fill="#CCCCCC" cx="0" cy="0" r="28"/>
	</g>
	<g>
		<circle fill="#FFFFFF" cx="0" cy="0" r="24"/>
	</g>
	<g>
		
			<ellipse transform="matrix(0.5878 -0.809 0.809 0.5878 1.406295e-05 -5.360487e-06)" fill="#FFFFFF" cx="0" cy="0" rx="24" ry="24"/>
	</g>
	<g>
		<path fill="#F3F3F3" d="M0,22c12.919,0,23.45-10.209,23.975-23C23.988-0.668,24-0.335,24,0c0,13.255-10.745,24-24,24
			S-24,13.255-24,0c0-0.335,0.012-0.668,0.025-1C-23.45,11.791-12.919,22,0,22z"/>
	</g>
	<g>
		<g>
			<path fill="#FAAB67" d="M-13.326,8.849C-10.634,12.896-6.146,15.631-1,15.95v4c-6.625-0.328-12.396-3.863-15.788-9.102
				L-13.326,8.849z"/>
		</g>
	</g>
	<g>
		<g>
			<path fill="#24CB7F" d="M-16,0c0,1.376,0.192,2.704,0.519,3.979l-3.808,1.237C-19.738,3.55-20,1.808-20,0
				c0-6.293,2.912-11.899,7.455-15.565l2.35,3.235C-13.74-9.396-16-4.962-16,0z"/>
		</g>
		<g opacity="0.05">
			<g>
				<path d="M-19.289,4.216l3.597-1.169c0.062,0.313,0.132,0.624,0.211,0.931l-3.808,1.237C-19.738,3.55-20,1.808-20,0
					c0-0.186,0.011-0.368,0.016-0.553C-19.945,1.094-19.701,2.689-19.289,4.216z"/>
			</g>
			<g>
				<path d="M-16-1c0-4.749,2.084-8.999,5.37-11.929l0.435,0.599c-3.454,2.859-5.671,7.146-5.784,11.953
					C-15.987-0.584-16-0.791-16-1z"/>
			</g>
		</g>
		<g>
			<path fill="#FFBE2A" d="M-14.869,5.883C-12.641,11.509-7.321,15.558-1,15.95v4c-8.097-0.401-14.914-5.603-17.672-12.831
				L-14.869,5.883z"/>
		</g>
		<g opacity="0.05">
			<path d="M-18.672,7.118l0.372-0.121C-15.339,13.762-8.763,18.565-1,18.95v1C-9.097,19.548-15.914,14.347-18.672,7.118z"/>
		</g>
	</g>
	<g>
		<g>
			<path fill="#ED1E24" d="M16,0c0,1.376-0.192,2.704-0.519,3.979l3.808,1.237C19.738,3.55,20,1.808,20,0
				c0-6.293-2.912-11.899-7.455-15.565l-2.35,3.235C13.74-9.396,16-4.962,16,0z"/>
		</g>
		<g opacity="0.05">
			<g>
				<path d="M19.289,4.216c0.412-1.527,0.656-3.121,0.695-4.769C19.989-0.368,20-0.186,20,0c0,1.808-0.262,3.55-0.711,5.216
					l-3.808-1.237c0.079-0.307,0.149-0.618,0.211-0.931L19.289,4.216z"/>
			</g>
			<g>
				<path d="M16-1c0,0.209-0.013,0.416-0.021,0.623c-0.113-4.807-2.329-9.094-5.784-11.953l0.435-0.599C13.916-9.999,16-5.749,16-1z
					"/>
			</g>
		</g>
		<g>
			<path fill="#F47721" d="M14.869,5.883C12.641,11.509,7.321,15.558,1,15.95v4c8.097-0.401,14.914-5.603,17.672-12.831
				L14.869,5.883z"/>
		</g>
		<g opacity="0.05">
			<path d="M18.3,6.997l0.372,0.121C15.914,14.347,9.097,19.548,1,19.95v-1C8.763,18.565,15.339,13.762,18.3,6.997z"/>
		</g>
	</g>
	<path fill="#807F7F" d="M0,13.254"/>
	<path fill="#D9D9D8" d="M5-18c0-1.1-0.9-2-2-2h-6c-1.1,0-2,0.9-2,2v1c0,1.1,0.9,2,2,2h6c1.1,0,2-0.9,2-2V-18z"/>
	<path opacity="0.05" d="M3-15h-6c-1.1,0-2-0.9-2-2v-1c0,1.1,0.9,2,2,2h6c1.1,0,2-0.9,2-2v1C5-15.9,4.1-15,3-15z"/>
</symbol>
<g>
</g>
<path opacity="0.12" d="M46,37c4.418,0,8-3.582,8-8c0-3.731-2.558-6.856-6.013-7.741C47.989,21.172,48,21.087,48,21
	c0-5.523-4.477-10-10-10c-4.659,0-8.563,3.191-9.673,7.504C27.135,17.565,25.635,17,24,17c-3.866,0-7,3.134-7,7
	c0,0.009,0.001,0.017,0.001,0.025C16.835,24.013,16.669,24,16.5,24c-3.59,0-6.5,2.91-6.5,6.5s2.91,6.5,6.5,6.5H46z"/>
<g>
	<path fill="#FFFFFF" d="M46,36c4.418,0,8-3.582,8-8c0-3.731-2.558-6.856-6.013-7.741C47.989,20.172,48,20.087,48,20
		c0-5.523-4.477-10-10-10c-4.659,0-8.563,3.191-9.673,7.504C27.135,16.565,25.635,16,24,16c-3.866,0-7,3.134-7,7
		c0,0.009,0.001,0.017,0.001,0.025C16.835,23.013,16.669,23,16.5,23c-3.59,0-6.5,2.91-6.5,6.5s2.91,6.5,6.5,6.5H46z"/>
</g>
<path opacity="0.12" d="M47,52.857C47,54.041,46.041,55,44.857,55H19.143C17.959,55,17,54.041,17,52.857V27.143
	C17,25.959,17.959,25,19.143,25h25.714C46.041,25,47,25.959,47,27.143V52.857z"/>
<path fill="#F9422A" d="M47,51.857C47,53.041,46.041,54,44.857,54H19.143C17.959,54,17,53.041,17,51.857V26.143
	C17,24.959,17.959,24,19.143,24h25.714C46.041,24,47,24.959,47,26.143V51.857z"/>
<g opacity="0.05">
	<path d="M29,49h-1c-2.206,0-4-1.794-4-4v-2.766l-2.555-1.703C21.167,40.346,21,40.034,21,39.7s0.167-0.646,0.445-0.832L24,37.164
		V35c0-2.206,1.794-4,4-4h1c0.552,0,1,0.447,1,1c0,0.553-0.448,1-1,1h-1c-1.103,0-2,0.897-2,2V37.7c0,0.334-0.167,0.646-0.445,0.832
		L23.803,39.7l1.752,1.168C25.833,41.053,26,41.366,26,41.7V45c0,1.103,0.897,2,2,2h1c0.552,0,1,0.447,1,1S29.552,49,29,49z"/>
</g>
<g opacity="0.05">
	<path d="M36,49h-1c-0.552,0-1-0.447-1-1s0.448-1,1-1h1c1.103,0,2-0.897,2-2V41.7c0-0.334,0.167-0.646,0.445-0.832l1.752-1.168
		l-1.752-1.168C38.167,38.346,38,38.034,38,37.7V35c0-1.103-0.897-2-2-2h-1c-0.552,0-1-0.447-1-1c0-0.553,0.448-1,1-1h1
		c2.206,0,4,1.794,4,4v2.164l2.555,1.703C42.833,39.053,43,39.366,43,39.7s-0.167,0.646-0.445,0.832L40,42.235V45
		C40,47.206,38.206,49,36,49z"/>
</g>
<g>
	<path fill="#FFFFFF" d="M29,48h-1c-2.206,0-4-1.794-4-4v-2.766l-2.555-1.703C21.167,39.346,21,39.034,21,38.7
		s0.167-0.646,0.445-0.832L24,36.164V34c0-2.206,1.794-4,4-4h1c0.552,0,1,0.447,1,1s-0.448,1-1,1h-1c-1.103,0-2,0.897-2,2V36.7
		c0,0.334-0.167,0.646-0.445,0.832L23.803,38.7l1.752,1.168C25.833,40.053,26,40.366,26,40.7V44c0,1.103,0.897,2,2,2h1
		c0.552,0,1,0.447,1,1S29.552,48,29,48z"/>
</g>
<g>
	<path fill="#FFFFFF" d="M36,48h-1c-0.552,0-1-0.447-1-1s0.448-1,1-1h1c1.103,0,2-0.897,2-2V40.7c0-0.334,0.167-0.646,0.445-0.832
		l1.752-1.168l-1.752-1.168C38.167,37.346,38,37.034,38,36.7V34c0-1.103-0.897-2-2-2h-1c-0.552,0-1-0.447-1-1s0.448-1,1-1h1
		c2.206,0,4,1.794,4,4v2.164l2.555,1.703C42.833,38.053,43,38.366,43,38.7s-0.167,0.646-0.445,0.832L40,41.235V44
		C40,46.206,38.206,48,36,48z"/>
</g>
</svg>
