<?xml version="1.0" encoding="utf-8"?>
<!-- Generator: Adobe Illustrator 20.1.0, SVG Export Plug-In . SVG Version: 6.00 Build 0)  -->
<svg version="1.1" id="icons" xmlns="http://www.w3.org/2000/svg" xmlns:xlink="http://www.w3.org/1999/xlink" x="0px" y="0px"
	 viewBox="0 0 64 64" enable-background="new 0 0 64 64" xml:space="preserve">
<symbol  id="gauge-blank" viewBox="-28 -28 56 56">
	<g>
		<circle fill="#CCCCCC" cx="0" cy="0" r="28"/>
	</g>
	<g>
		<circle fill="#FFFFFF" cx="0" cy="0" r="24"/>
	</g>
	<g>
		
			<ellipse transform="matrix(0.5878 -0.809 0.809 0.5878 1.406295e-05 -5.360487e-06)" fill="#FFFFFF" cx="0" cy="0" rx="24" ry="24"/>
	</g>
	<g>
		<path fill="#F3F3F3" d="M0,22c12.919,0,23.45-10.209,23.975-23C23.988-0.668,24-0.335,24,0c0,13.255-10.745,24-24,24
			S-24,13.255-24,0c0-0.335,0.012-0.668,0.025-1C-23.45,11.791-12.919,22,0,22z"/>
	</g>
	<g>
		<g>
			<path fill="#FAAB67" d="M-13.326,8.849C-10.634,12.896-6.146,15.631-1,15.95v4c-6.625-0.328-12.396-3.863-15.788-9.102
				L-13.326,8.849z"/>
		</g>
	</g>
	<g>
		<g>
			<path fill="#24CB7F" d="M-16,0c0,1.376,0.192,2.704,0.519,3.979l-3.808,1.237C-19.738,3.55-20,1.808-20,0
				c0-6.293,2.912-11.899,7.455-15.565l2.35,3.235C-13.74-9.396-16-4.962-16,0z"/>
		</g>
		<g opacity="0.05">
			<g>
				<path d="M-19.289,4.216l3.597-1.169c0.062,0.313,0.132,0.624,0.211,0.931l-3.808,1.237C-19.738,3.55-20,1.808-20,0
					c0-0.186,0.011-0.368,0.016-0.553C-19.945,1.094-19.701,2.689-19.289,4.216z"/>
			</g>
			<g>
				<path d="M-16-1c0-4.749,2.084-8.999,5.37-11.929l0.435,0.599c-3.454,2.859-5.671,7.146-5.784,11.953
					C-15.987-0.584-16-0.791-16-1z"/>
			</g>
		</g>
		<g>
			<path fill="#FFBE2A" d="M-14.869,5.883C-12.641,11.509-7.321,15.558-1,15.95v4c-8.097-0.401-14.914-5.603-17.672-12.831
				L-14.869,5.883z"/>
		</g>
		<g opacity="0.05">
			<path d="M-18.672,7.118l0.372-0.121C-15.339,13.762-8.763,18.565-1,18.95v1C-9.097,19.548-15.914,14.347-18.672,7.118z"/>
		</g>
	</g>
	<g>
		<g>
			<path fill="#ED1E24" d="M16,0c0,1.376-0.192,2.704-0.519,3.979l3.808,1.237C19.738,3.55,20,1.808,20,0
				c0-6.293-2.912-11.899-7.455-15.565l-2.35,3.235C13.74-9.396,16-4.962,16,0z"/>
		</g>
		<g opacity="0.05">
			<g>
				<path d="M19.289,4.216c0.412-1.527,0.656-3.121,0.695-4.769C19.989-0.368,20-0.186,20,0c0,1.808-0.262,3.55-0.711,5.216
					l-3.808-1.237c0.079-0.307,0.149-0.618,0.211-0.931L19.289,4.216z"/>
			</g>
			<g>
				<path d="M16-1c0,0.209-0.013,0.416-0.021,0.623c-0.113-4.807-2.329-9.094-5.784-11.953l0.435-0.599C13.916-9.999,16-5.749,16-1z
					"/>
			</g>
		</g>
		<g>
			<path fill="#F47721" d="M14.869,5.883C12.641,11.509,7.321,15.558,1,15.95v4c8.097-0.401,14.914-5.603,17.672-12.831
				L14.869,5.883z"/>
		</g>
		<g opacity="0.05">
			<path d="M18.3,6.997l0.372,0.121C15.914,14.347,9.097,19.548,1,19.95v-1C8.763,18.565,15.339,13.762,18.3,6.997z"/>
		</g>
	</g>
	<path fill="#807F7F" d="M0,13.254"/>
	<path fill="#D9D9D8" d="M5-18c0-1.1-0.9-2-2-2h-6c-1.1,0-2,0.9-2,2v1c0,1.1,0.9,2,2,2h6c1.1,0,2-0.9,2-2V-18z"/>
	<path opacity="0.05" d="M3-15h-6c-1.1,0-2-0.9-2-2v-1c0,1.1,0.9,2,2,2h6c1.1,0,2-0.9,2-2v1C5-15.9,4.1-15,3-15z"/>
</symbol>
<symbol  id="gauge-blank_2" viewBox="-28 -28 56 56">
	<g>
		<circle fill="#CCCCCC" cx="0" cy="0" r="28"/>
	</g>
	<g>
		<circle fill="#FFFFFF" cx="0" cy="0" r="24"/>
	</g>
	<g>
		
			<ellipse transform="matrix(0.5878 -0.809 0.809 0.5878 1.406295e-05 -5.360487e-06)" fill="#FFFFFF" cx="0" cy="0" rx="24" ry="24"/>
	</g>
	<g>
		<path fill="#F3F3F3" d="M0,22c12.919,0,23.45-10.209,23.975-23C23.988-0.668,24-0.335,24,0c0,13.255-10.745,24-24,24
			S-24,13.255-24,0c0-0.335,0.012-0.668,0.025-1C-23.45,11.791-12.919,22,0,22z"/>
	</g>
	<g>
		<g>
			<path fill="#FAAB67" d="M-13.326,8.849C-10.634,12.896-6.146,15.631-1,15.95v4c-6.625-0.328-12.396-3.863-15.788-9.102
				L-13.326,8.849z"/>
		</g>
	</g>
	<g>
		<g>
			<path fill="#24CB7F" d="M-16,0c0,1.376,0.192,2.704,0.519,3.979l-3.808,1.237C-19.738,3.55-20,1.808-20,0
				c0-6.293,2.912-11.899,7.455-15.565l2.35,3.235C-13.74-9.396-16-4.962-16,0z"/>
		</g>
		<g opacity="0.05">
			<g>
				<path d="M-19.289,4.216l3.597-1.169c0.062,0.313,0.132,0.624,0.211,0.931l-3.808,1.237C-19.738,3.55-20,1.808-20,0
					c0-0.186,0.011-0.368,0.016-0.553C-19.945,1.094-19.701,2.689-19.289,4.216z"/>
			</g>
			<g>
				<path d="M-16-1c0-4.749,2.084-8.999,5.37-11.929l0.435,0.599c-3.454,2.859-5.671,7.146-5.784,11.953
					C-15.987-0.584-16-0.791-16-1z"/>
			</g>
		</g>
		<g>
			<path fill="#FFBE2A" d="M-14.869,5.883C-12.641,11.509-7.321,15.558-1,15.95v4c-8.097-0.401-14.914-5.603-17.672-12.831
				L-14.869,5.883z"/>
		</g>
		<g opacity="0.05">
			<path d="M-18.672,7.118l0.372-0.121C-15.339,13.762-8.763,18.565-1,18.95v1C-9.097,19.548-15.914,14.347-18.672,7.118z"/>
		</g>
	</g>
	<g>
		<g>
			<path fill="#ED1E24" d="M16,0c0,1.376-0.192,2.704-0.519,3.979l3.808,1.237C19.738,3.55,20,1.808,20,0
				c0-6.293-2.912-11.899-7.455-15.565l-2.35,3.235C13.74-9.396,16-4.962,16,0z"/>
		</g>
		<g opacity="0.05">
			<g>
				<path d="M19.289,4.216c0.412-1.527,0.656-3.121,0.695-4.769C19.989-0.368,20-0.186,20,0c0,1.808-0.262,3.55-0.711,5.216
					l-3.808-1.237c0.079-0.307,0.149-0.618,0.211-0.931L19.289,4.216z"/>
			</g>
			<g>
				<path d="M16-1c0,0.209-0.013,0.416-0.021,0.623c-0.113-4.807-2.329-9.094-5.784-11.953l0.435-0.599C13.916-9.999,16-5.749,16-1z
					"/>
			</g>
		</g>
		<g>
			<path fill="#F47721" d="M14.869,5.883C12.641,11.509,7.321,15.558,1,15.95v4c8.097-0.401,14.914-5.603,17.672-12.831
				L14.869,5.883z"/>
		</g>
		<g opacity="0.05">
			<path d="M18.3,6.997l0.372,0.121C15.914,14.347,9.097,19.548,1,19.95v-1C8.763,18.565,15.339,13.762,18.3,6.997z"/>
		</g>
	</g>
	<path fill="#807F7F" d="M0,13.254"/>
	<path fill="#D9D9D8" d="M5-18c0-1.1-0.9-2-2-2h-6c-1.1,0-2,0.9-2,2v1c0,1.1,0.9,2,2,2h6c1.1,0,2-0.9,2-2V-18z"/>
	<path opacity="0.05" d="M3-15h-6c-1.1,0-2-0.9-2-2v-1c0,1.1,0.9,2,2,2h6c1.1,0,2-0.9,2-2v1C5-15.9,4.1-15,3-15z"/>
</symbol>
<g>
</g>
<path opacity="0.12" d="M49,52l-34,0c-1.105,0-2-0.895-2-2l0-29l38,0l0,29C51,51.105,50.105,52,49,52z"/>
<path fill="#F9422A" d="M49,51l-34,0c-1.105,0-2-0.895-2-2l0-29l38,0l0,29C51,50.105,50.105,51,49,51z"/>
<g>
	<path fill="#FFFFFF" d="M51,20H13v-5c0-1.105,0.895-2,2-2h34c1.105,0,2,0.895,2,2V20z"/>
</g>
<g opacity="0.08">
	<path d="M29,45h-1c-2.206,0-4-1.794-4-4v-2.766l-2.555-1.703C21.167,36.346,21,36.034,21,35.7s0.167-0.646,0.445-0.832L24,33.164
		V31c0-2.206,1.794-4,4-4h1c0.552,0,1,0.447,1,1s-0.448,1-1,1h-1c-1.103,0-2,0.897-2,2V33.7c0,0.334-0.167,0.646-0.445,0.832
		L23.803,35.7l1.752,1.168C25.833,37.053,26,37.366,26,37.7V41c0,1.103,0.897,2,2,2h1c0.552,0,1,0.447,1,1S29.552,45,29,45z"/>
</g>
<g opacity="0.08">
	<path d="M36,45h-1c-0.552,0-1-0.447-1-1s0.448-1,1-1h1c1.103,0,2-0.897,2-2V37.7c0-0.334,0.167-0.646,0.445-0.832l1.752-1.168
		l-1.752-1.168C38.167,34.346,38,34.034,38,33.7V31c0-1.103-0.897-2-2-2h-1c-0.552,0-1-0.447-1-1s0.448-1,1-1h1c2.206,0,4,1.794,4,4
		v2.164l2.555,1.703C42.833,35.053,43,35.366,43,35.7s-0.167,0.646-0.445,0.832L40,38.235V41C40,43.206,38.206,45,36,45z"/>
</g>
<g>
	<path fill="#FFFFFF" d="M29,44h-1c-2.206,0-4-1.794-4-4v-2.766l-2.555-1.703C21.167,35.346,21,35.034,21,34.7
		s0.167-0.646,0.445-0.832L24,32.164V30c0-2.206,1.794-4,4-4h1c0.552,0,1,0.447,1,1s-0.448,1-1,1h-1c-1.103,0-2,0.897-2,2V32.7
		c0,0.334-0.167,0.646-0.445,0.832L23.803,34.7l1.752,1.168C25.833,36.053,26,36.366,26,36.7V40c0,1.103,0.897,2,2,2h1
		c0.552,0,1,0.447,1,1S29.552,44,29,44z"/>
</g>
<g>
	<path fill="#FFFFFF" d="M36,44h-1c-0.552,0-1-0.447-1-1s0.448-1,1-1h1c1.103,0,2-0.897,2-2V36.7c0-0.334,0.167-0.646,0.445-0.832
		l1.752-1.168l-1.752-1.168C38.167,33.346,38,33.034,38,32.7V30c0-1.103-0.897-2-2-2h-1c-0.552,0-1-0.447-1-1s0.448-1,1-1h1
		c2.206,0,4,1.794,4,4v2.164l2.555,1.703C42.833,34.053,43,34.366,43,34.7s-0.167,0.646-0.445,0.832L40,37.235V40
		C40,42.206,38.206,44,36,44z"/>
</g>
<circle fill="#CACFD2" cx="17.5" cy="16.5" r="1.5"/>
<circle fill="#CACFD2" cx="22.5" cy="16.5" r="1.5"/>
<circle fill="#CACFD2" cx="27.5" cy="16.5" r="1.5"/>
</svg>
