<svg xmlns="http://www.w3.org/2000/svg" width="132" height="20" viewBox="0 0 132 20"><g fill="none"><path fill="#F00" d="M95.089 5.806c0 .736-.599 1.335-1.337 1.335-.735 0-1.334-.599-1.334-1.335 0-.739.599-1.336 1.334-1.336.738-.001 1.337.597 1.337 1.336zm-2.386-.006c0 .583.469 1.051 1.049 1.051s1.049-.469 1.049-1.051c0-.579-.469-1.049-1.049-1.049s-1.049.47-1.049 1.049zm1.606-.328l-.016.124c-.016.057-.049.171-.186.257l-.066.034.346.622h-.336l-.305-.572h-.203v.572h-.292v-1.497h.374c.208 0 .293.003.395.04.261.088.289.331.289.42zm-.407-.187c-.068-.026-.138-.026-.277-.026h-.082v.431h.188c.092-.002.191-.01.25-.094l.034-.129c0-.081-.044-.148-.113-.182zm-27.457 10.712c-.317 0-.613-.123-.835-.344-.212-.212-.331-.496-.331-.794v-10.741h2.279v9.786h10.629l-1.342 2.094h-10.4v-.001zm17.315-2.093h8.223l-1.34 2.093h-7.039c-3.271 0-5.929-2.657-5.929-5.938 0-3.281 2.657-5.941 5.929-5.941h8.192l-1.343 2.095-6.693-.001c-1.758 0-3.241 1.186-3.693 2.803h11.094l-1.343 2.095h-9.75c.452 1.613 1.938 2.794 3.692 2.794zm-27.744 0h8.225l-1.34 2.093h-7.038c-3.273 0-5.931-2.657-5.931-5.938 0-3.281 2.657-5.941 5.931-5.941h8.192l-1.342 2.095-6.697-.001c-2.12 0-3.84 1.722-3.84 3.847 0 2.124 1.719 3.845 3.84 3.845zm-19.408 2.093l-2.689.004 7.184-11.267c.304-.458.83-.734 1.402-.734.566 0 1.084.268 1.391.714l7.209 11.287-2.692-.004-1.262-2.096h-6.167l-1.345-2.094h6.085l-3.214-5.19-5.902 9.38zm-16.759 0v-11.879h9.979c2.214 0 4.009 1.799 4.009 4.017 0 2.218-1.795 4.017-4.009 4.017l-1.044-.002 4.581 3.848h-3.313l-6.807-5.939 6.428.001c1.063 0 1.919-.862 1.919-1.924 0-1.062-.855-1.923-1.919-1.923h-7.545v9.786h-2.279v-.002zm-7.143-11.879c3.275 0 5.929 2.66 5.929 5.941 0 3.282-2.654 5.942-5.929 5.942l-6.894-.004c-3.274 0-5.812-2.657-5.812-5.938 0-3.281 2.539-5.941 5.812-5.941h6.894zm-10.58 5.941c0 2.124 1.719 3.846 3.839 3.846h6.586c2.122 0 3.84-1.722 3.84-3.846 0-2.125-1.718-3.846-3.84-3.846l-6.586-.001c-2.12 0-3.839 1.722-3.839 3.847z"/><path fill="#231F20" d="M100.623 11.282h3.067l-1.508-4.197h-.025l-1.533 4.197zm.9-5.282h1.331l3.536 9h-1.331l-.989-2.71h-3.827l-1.014 2.71h-1.229l3.523-9zm6.958 4.311h2.357c.684.008 1.185-.13 1.502-.416.317-.286.475-.697.475-1.235 0-.538-.158-.947-.475-1.229-.317-.282-.817-.422-1.502-.422h-2.357v3.303zm-1.204-4.311h3.967c.912 0 1.603.233 2.072.7.469.466.703 1.12.703 1.96 0 .84-.234 1.496-.703 1.966-.469.471-1.16.702-2.072.693h-2.763v3.681h-1.204v-9zm8.212 0v9h6.286v-1.008h-5.082v-3.113h4.702v-1.008h-4.702v-2.861h5.044v-1.008h-6.248zm9.898 4.374l-3.143 4.626h1.343l2.509-3.718 2.433 3.718h1.47l-3.181-4.626 2.991-4.374h-1.343l-2.357 3.517-2.256-3.517h-1.445l2.978 4.374z"/></g></svg>